<svg width="921" height="917" viewBox="0 0 921 917" fill="none" xmlns="http://www.w3.org/2000/svg">
<path d="M299.598 62.0541C378.282 20.9563 417.476 0.5 460.5 0.5C503.524 0.5 542.718 20.9563 621.402 62.0541L723.623 115.446C736.173 122.001 746.092 129.601 753.677 141.487C764.416 158.314 769.798 176.957 772.491 201.676C775.186 226.408 775.187 257.182 775.187 298.267C775.187 317.276 755.314 329.747 738.196 321.48L467.401 190.69C467.399 190.688 467.396 190.687 467.394 190.686C455.623 184.543 440.555 188.175 433.731 198.867C426.885 209.595 430.972 223.288 442.768 229.449L874.651 455.027C902.832 469.747 920.5 498.907 920.5 530.701C920.5 571.786 920.499 602.56 917.804 627.292C915.111 652.011 909.73 670.654 898.991 687.481C888.25 704.311 873.088 717.855 850.761 732.332C828.428 746.813 798.963 762.203 759.635 782.745C740.068 792.965 716.639 778.77 716.639 756.694V589.119C716.639 573.292 707.307 558.694 692.204 550.804L279.661 335.288C264.855 327.553 255.763 313.278 255.763 297.86V134.404C255.763 104.006 272.655 76.1272 299.598 62.0541ZM667.25 779.272C667.25 811.066 649.583 840.226 621.402 854.946C542.718 896.044 503.524 916.5 460.5 916.5C417.476 916.5 378.282 896.044 299.598 854.946L189.672 797.53C187.745 796.523 185.194 795.317 182.333 793.964C181.858 793.74 181.375 793.511 180.885 793.279C177.434 791.645 173.622 789.818 169.922 787.872C166.221 785.926 162.641 783.867 159.654 781.771C156.658 779.668 154.299 777.555 152.996 775.513C142.257 758.686 136.876 740.043 134.182 715.324C131.487 690.592 131.487 659.818 131.487 618.733C131.487 590.229 160.934 571.247 186.895 583.016L415.167 686.501C415.171 686.503 415.175 686.505 415.179 686.507C426.949 692.647 442.014 689.013 448.836 678.323C455.683 667.595 451.596 653.903 439.8 647.741L28.8556 433.1C11.4266 423.996 0.5 405.962 0.5 386.299C0.5 345.214 0.500682 314.44 3.19553 289.708C5.88893 264.989 11.2704 246.346 22.0092 229.519C32.75 212.689 47.9123 199.145 70.2385 184.668C92.5723 170.187 122.037 154.797 161.365 134.255C181.853 123.554 206.384 138.417 206.384 161.532V323.283C206.384 339.115 215.723 353.712 230.835 361.6L643.337 576.907C658.151 584.64 667.25 598.919 667.25 614.344V779.272Z" fill="#3C49BD" stroke="black"/>
</svg>
